<?xml version="1.0" encoding="UTF-8" ?>
<!DOCTYPE svg PUBLIC "-//W3C//DTD SVG 1.1//EN" "http://www.w3.org/Graphics/SVG/1.1/DTD/svg11.dtd">
<svg width="1434pt" height="698pt" viewBox="0 0 1434 698" version="1.1" xmlns="http://www.w3.org/2000/svg">
<path fill="#ffffff" d=" M 0.00 0.00 L 1434.00 0.00 L 1434.00 698.00 L 0.00 698.00 L 0.00 0.00 Z" />
<path fill="#f4080f" d=" M 82.65 25.37 C 86.93 25.23 90.87 27.10 95.02 27.83 C 507.59 131.50 920.26 234.97 1332.83 338.59 C 1336.01 339.58 1339.22 340.54 1342.35 341.72 C 1343.82 343.23 1343.68 345.67 1344.51 347.54 C 1342.26 349.79 1339.18 350.69 1336.12 351.17 C 921.42 455.15 506.66 559.17 91.93 663.36 C 89.09 663.92 86.19 663.75 83.32 663.76 C 81.89 657.55 83.58 651.27 83.31 645.02 C 83.31 445.36 83.32 245.70 83.31 46.04 C 82.68 39.18 82.14 32.27 82.65 25.37 Z" />
<path fill="#0404fb" d=" M 92.32 41.28 C 97.81 41.74 102.93 43.98 108.33 44.93 C 125.48 49.46 142.72 53.69 159.89 58.18 C 162.58 58.74 165.26 59.38 167.90 60.14 C 186.56 64.83 205.23 69.47 223.89 74.18 C 227.60 75.15 231.31 76.12 235.09 76.80 L 235.85 77.21 C 239.65 78.13 243.43 79.23 247.31 79.81 L 247.91 80.14 C 259.03 83.06 270.22 85.68 281.34 88.59 C 288.52 90.87 295.90 92.41 303.19 94.28 C 308.04 95.45 312.80 97.05 317.79 97.57 C 318.62 98.50 319.27 99.62 320.25 100.43 C 321.43 100.53 322.53 99.87 323.68 99.65 C 366.54 109.84 409.19 121.02 451.99 131.49 C 461.85 133.80 471.57 136.78 481.54 138.62 C 486.36 139.66 491.08 141.08 495.88 142.22 C 498.56 142.80 501.23 143.42 503.89 144.14 C 514.23 146.86 524.68 149.21 535.00 152.06 C 546.02 154.53 556.91 157.51 567.90 160.14 C 569.94 160.67 571.98 161.24 574.02 161.83 L 574.60 162.16 C 576.55 163.34 578.66 164.27 580.90 164.76 C 603.05 169.61 624.85 175.88 646.95 180.93 C 655.51 183.12 664.05 185.35 672.63 187.46 C 677.71 188.64 682.71 190.60 688.02 190.46 L 688.35 190.47 C 692.50 193.88 698.01 193.69 702.94 194.98 C 721.60 199.91 740.41 204.29 759.13 209.03 C 764.37 210.30 769.53 212.21 774.99 212.38 C 775.73 212.44 777.22 212.56 777.96 212.62 L 778.79 213.09 C 782.96 215.71 787.98 216.08 792.63 217.37 C 809.50 221.73 826.37 226.07 843.35 230.00 C 882.68 240.27 922.23 249.65 961.62 259.70 C 1028.01 276.26 1094.37 292.94 1160.78 309.43 C 1168.21 311.07 1175.48 313.76 1183.12 314.31 C 1184.58 314.42 1186.16 314.44 1187.61 314.93 C 1193.69 317.47 1200.28 318.31 1206.60 320.10 C 1225.28 324.65 1243.87 329.60 1262.60 333.94 C 1264.36 334.31 1266.11 334.68 1267.88 335.11 C 1275.90 337.09 1283.93 339.04 1291.99 340.92 C 1293.62 341.35 1295.27 341.74 1296.94 342.17 C 1298.49 342.52 1300.07 342.91 1301.64 343.34 C 1301.64 343.86 1301.65 344.88 1301.66 345.39 C 1295.66 346.98 1289.62 348.42 1283.68 350.19 C 1279.77 349.84 1276.06 351.39 1272.20 351.49 C 1271.56 351.00 1270.27 350.01 1269.63 349.52 C 1268.31 350.25 1268.33 351.58 1269.50 352.69 C 1256.06 355.22 1243.15 359.84 1229.81 362.78 C 1222.82 364.87 1215.43 365.68 1208.77 368.75 L 1207.96 369.11 C 1202.59 370.21 1197.36 371.86 1192.02 373.08 C 1189.63 373.56 1187.27 374.20 1184.93 374.84 C 1177.97 376.62 1170.99 378.28 1164.06 380.16 C 1141.69 385.76 1119.28 391.26 1096.97 397.11 C 1087.61 399.25 1078.32 401.68 1069.05 404.12 C 1045.30 409.88 1021.67 416.10 997.93 421.89 C 972.95 428.32 947.92 434.49 922.91 440.84 C 911.99 443.60 901.03 446.25 890.15 449.17 C 884.97 450.00 880.06 452.00 874.89 452.88 C 865.59 455.30 856.29 457.70 846.94 459.90 C 817.98 467.38 788.93 474.53 759.93 481.88 C 738.56 487.14 717.29 492.91 695.84 497.83 L 695.16 498.22 C 691.70 499.06 688.27 500.03 684.79 500.78 L 684.08 501.08 C 673.62 503.44 663.31 506.45 652.84 508.75 C 635.58 513.31 618.24 517.64 600.89 521.83 C 599.28 522.26 597.68 522.68 596.10 523.14 C 564.68 531.02 533.31 539.08 501.86 546.78 C 500.26 547.23 498.67 547.67 497.09 548.14 C 489.30 549.92 481.64 552.21 473.80 553.79 L 473.17 554.17 C 471.81 554.49 470.47 554.82 469.14 555.20 C 462.68 556.45 456.45 558.63 450.00 559.88 C 448.35 560.30 446.71 560.70 445.09 561.16 C 421.71 567.09 398.32 572.98 374.93 578.83 C 370.96 580.03 366.89 580.89 362.83 581.74 L 362.14 582.15 C 354.37 583.93 346.70 586.10 338.92 587.85 C 321.94 592.30 304.86 596.35 287.89 600.86 C 278.24 603.13 268.65 605.63 259.03 608.05 C 245.74 611.48 232.34 614.51 219.11 618.21 C 208.66 620.47 198.40 623.56 187.96 625.86 C 177.71 628.51 167.49 631.30 157.14 633.51 C 149.94 634.24 143.08 636.60 136.06 638.22 C 121.83 641.70 107.64 645.37 93.41 648.85 C 92.64 641.51 93.94 634.25 94.64 626.98 C 94.68 440.98 94.64 254.97 94.67 68.96 C 94.62 63.72 95.35 58.29 93.40 53.28 C 92.39 49.48 92.28 45.53 92.32 41.62 L 92.32 41.28 Z" />
<path fill="#ac085a" d=" M 91.48 53.00 C 91.84 49.25 90.11 44.98 92.32 41.62 C 92.28 45.53 92.39 49.48 93.40 53.28 C 93.42 234.86 93.40 416.45 93.41 598.04 C 93.31 608.03 93.58 618.02 93.32 628.00 C 92.57 634.42 92.23 640.88 92.30 647.36 C 90.56 642.07 91.72 636.43 91.48 630.99 C 91.48 438.32 91.48 245.66 91.48 53.00 Z" />
<path fill="#3920dc" d=" M 93.40 53.28 C 95.35 58.29 94.62 63.72 94.67 68.96 C 94.64 254.97 94.68 440.98 94.64 626.98 C 93.94 634.25 92.64 641.51 93.41 648.85 C 107.64 645.37 121.83 641.70 136.06 638.22 C 143.08 636.60 149.94 634.24 157.14 633.51 C 153.58 635.01 149.78 635.77 146.03 636.62 C 131.67 640.31 117.25 643.80 102.89 647.47 C 99.41 648.45 95.90 649.37 92.32 649.89 C 92.31 649.25 92.30 647.99 92.30 647.36 C 92.23 640.88 92.57 634.42 93.32 628.00 C 93.58 618.02 93.31 608.03 93.41 598.04 C 93.40 416.45 93.42 234.86 93.40 53.28 Z" />
<path fill="#ffffff" d=" M 107.55 58.44 C 365.97 122.92 624.29 187.81 882.68 252.41 C 1005.35 283.20 1128.07 313.77 1250.72 344.63 C 1250.77 345.06 1250.86 345.91 1250.91 346.34 C 869.82 441.83 488.69 537.17 107.57 632.55 C 107.25 582.03 107.53 531.51 107.43 480.99 C 107.43 381.32 107.43 281.66 107.43 182.00 C 107.51 140.81 107.28 99.63 107.55 58.44 Z" />
<path fill="#ac085a" d=" M 281.34 88.59 C 288.14 88.66 294.47 91.49 301.07 92.78 C 357.38 106.78 413.64 120.94 469.95 134.93 C 473.87 135.95 477.97 136.57 481.54 138.62 C 471.57 136.78 461.85 133.80 451.99 131.49 C 409.19 121.02 366.54 109.84 323.68 99.65 C 322.53 99.87 321.43 100.53 320.25 100.43 C 319.27 99.62 318.62 98.50 317.79 97.57 C 312.80 97.05 308.04 95.45 303.19 94.28 C 295.90 92.41 288.52 90.87 281.34 88.59 Z" />
<path fill="#3920dc" d=" M 574.60 162.16 C 577.06 162.40 579.52 162.80 581.92 163.46 C 617.68 172.59 653.57 181.18 689.29 190.46 L 688.02 190.46 C 682.71 190.60 677.71 188.64 672.63 187.46 C 664.05 185.35 655.51 183.12 646.95 180.93 C 624.85 175.88 603.05 169.61 580.90 164.76 C 578.66 164.27 576.55 163.34 574.60 162.16 Z" />
<path fill="#0404fb" d=" M 478.84 178.85 C 480.99 177.76 483.47 178.28 485.78 178.26 C 485.26 181.70 484.63 185.38 481.80 187.72 C 450.92 218.19 420.22 248.84 389.43 279.39 C 343.88 324.55 298.27 369.65 252.85 414.94 C 248.33 419.29 244.10 424.00 238.85 427.51 C 237.32 427.27 235.80 426.96 234.28 426.68 C 234.83 426.25 235.37 425.82 235.92 425.40 C 236.18 419.76 238.53 414.60 240.77 409.51 C 248.06 392.89 254.09 375.68 262.79 359.72 C 267.64 351.55 271.71 342.91 276.94 334.97 C 300.91 305.00 324.95 275.07 348.95 245.12 C 352.08 241.59 356.14 239.00 360.77 237.99 C 361.01 237.79 361.48 237.39 361.72 237.19 C 361.20 238.17 360.71 239.15 360.23 240.15 C 336.08 276.67 312.41 313.52 288.46 350.18 C 285.77 354.73 282.27 358.83 280.23 363.74 C 283.84 363.78 285.92 360.46 288.45 358.41 C 346.89 302.90 405.13 247.17 463.47 191.55 C 468.45 187.18 472.58 181.51 478.84 178.85 Z" />
<path fill="#f4080f" d=" M 507.18 180.81 C 509.26 179.65 511.43 178.61 513.78 178.14 C 514.33 184.13 508.24 187.25 504.52 190.83 C 493.80 200.99 483.68 211.78 473.17 222.15 C 447.60 248.25 421.79 274.11 396.04 300.03 C 356.55 340.09 316.79 379.89 277.24 419.87 C 282.87 422.28 289.04 421.28 294.98 421.85 C 302.97 422.61 311.00 422.30 319.02 422.21 C 330.34 421.54 341.69 421.69 353.03 421.50 C 354.70 421.47 356.34 421.12 357.99 420.80 C 364.97 422.06 371.97 420.52 378.97 420.66 C 382.85 420.65 386.73 420.56 390.61 420.61 C 390.59 421.45 390.55 423.15 390.53 424.00 C 389.36 424.59 388.21 425.22 387.04 425.83 C 386.61 426.03 385.75 426.44 385.32 426.65 C 375.23 426.27 365.15 427.20 355.37 429.75 C 355.05 430.40 354.74 431.06 354.43 431.72 C 354.35 431.19 354.18 430.15 354.10 429.62 C 332.53 433.08 310.64 431.10 288.93 432.11 C 280.95 431.94 272.70 433.25 265.02 430.43 C 262.39 429.94 260.25 428.38 258.54 426.39 C 258.28 424.89 257.96 423.40 257.80 421.90 C 260.93 416.81 265.81 413.13 269.95 408.91 C 345.36 336.66 420.83 264.47 496.20 192.17 C 499.90 188.43 504.31 185.30 507.18 180.81 Z" />
<path fill="#3920dc" d=" M 688.35 190.47 C 690.56 190.63 692.72 191.15 694.87 191.70 C 722.00 198.60 749.22 205.15 776.31 212.18 L 774.99 212.38 C 769.53 212.21 764.37 210.30 759.13 209.03 C 740.41 204.29 721.60 199.91 702.94 194.98 C 698.01 193.69 692.50 193.88 688.35 190.47 Z" />
<path fill="#0404fb" d=" M 531.90 207.69 C 533.19 206.43 534.96 205.90 536.60 205.24 C 536.72 211.47 536.16 217.77 533.96 223.65 C 529.07 244.44 524.37 265.29 519.76 286.15 C 519.25 290.58 516.53 294.40 516.25 298.88 C 515.32 310.24 516.30 321.72 514.58 333.03 C 514.55 342.35 513.79 351.74 515.24 361.00 C 515.87 365.60 514.86 370.63 517.24 374.85 C 520.52 381.32 523.31 388.03 526.70 394.44 C 532.25 403.09 537.92 411.68 543.93 420.02 C 545.79 422.77 547.51 425.69 550.20 427.75 C 552.51 424.18 554.57 420.42 555.86 416.34 C 552.71 415.82 548.96 417.17 546.28 415.10 C 546.26 413.98 546.29 412.86 546.37 411.74 C 550.43 411.36 554.51 411.31 558.60 411.28 C 558.95 409.83 559.28 408.37 559.59 406.92 C 561.20 405.52 563.28 404.85 565.31 405.92 C 566.00 407.75 565.18 409.73 565.12 411.62 C 565.86 411.69 567.33 411.83 568.06 411.90 C 568.43 416.08 563.11 414.59 561.65 417.47 C 559.77 420.82 558.57 424.65 559.24 428.51 C 563.20 427.80 566.48 425.50 569.59 423.09 C 569.64 422.59 569.72 421.60 569.77 421.10 C 573.91 417.61 580.25 417.34 584.53 420.78 C 584.69 422.27 584.06 423.69 583.68 425.11 C 584.00 425.71 584.66 426.91 584.99 427.51 C 588.35 428.12 590.15 425.00 590.16 422.05 C 590.27 417.41 593.02 413.49 593.84 409.01 C 594.30 405.74 596.47 403.03 598.95 400.98 C 600.75 399.57 604.11 400.25 604.28 402.85 C 604.44 407.37 603.11 411.75 602.11 416.11 C 600.84 420.69 596.45 423.96 596.15 428.86 C 600.39 429.58 603.07 426.06 606.25 423.99 C 605.99 415.41 611.03 407.74 616.69 401.70 C 618.28 399.68 621.11 400.62 623.31 400.49 C 623.54 404.03 623.50 407.58 623.15 411.11 C 621.76 417.54 615.11 422.11 615.29 428.94 C 620.07 429.39 623.37 425.90 626.46 422.86 C 626.56 422.42 626.74 421.53 626.83 421.08 C 628.75 419.78 630.37 417.49 632.95 417.68 C 637.24 417.78 642.25 417.46 645.51 420.79 C 645.61 424.02 645.60 427.27 646.33 430.45 C 644.85 436.17 637.31 432.39 634.91 437.17 C 632.15 437.63 629.17 438.45 626.45 437.46 C 625.27 435.77 624.28 433.96 623.19 432.23 C 620.30 433.83 617.44 436.10 613.92 435.70 C 610.04 436.38 607.86 431.53 604.04 432.25 C 602.17 433.25 600.69 434.89 598.73 435.74 C 595.32 436.23 592.29 434.37 589.80 432.27 C 583.47 433.28 577.46 436.77 570.89 435.23 C 567.94 435.23 566.39 432.58 564.91 430.47 C 563.11 432.16 560.82 432.97 558.45 433.47 C 558.34 435.21 558.23 436.95 558.16 438.71 C 556.79 438.66 555.43 438.60 554.08 438.54 C 553.38 437.50 553.70 435.23 551.94 435.40 C 537.21 433.96 522.90 430.07 508.38 427.44 C 499.34 425.38 490.21 423.78 481.17 421.75 C 475.04 420.98 468.97 419.85 462.91 418.70 C 443.81 416.51 423.98 414.71 405.26 420.26 C 399.08 421.73 392.93 423.41 387.04 425.83 C 388.21 425.22 389.36 424.59 390.53 424.00 C 390.55 423.15 390.59 421.45 390.61 420.61 C 386.73 420.56 382.85 420.65 378.97 420.66 C 371.97 420.52 364.97 422.06 357.99 420.80 C 357.45 420.62 356.38 420.27 355.84 420.09 C 356.66 420.00 358.30 419.81 359.12 419.72 C 360.25 416.13 361.26 412.50 362.79 409.05 C 371.04 391.72 380.83 375.19 390.17 358.43 C 396.05 349.01 402.73 340.10 408.93 330.88 C 414.17 323.51 418.86 315.70 425.20 309.18 C 432.94 300.95 439.86 291.91 448.32 284.38 C 464.74 269.06 480.92 253.46 497.97 238.83 C 504.42 233.69 510.77 228.39 516.33 222.27 C 521.67 217.58 526.72 212.57 531.90 207.69 Z" />
<path fill="#3920dc" d=" M 778.79 213.09 C 784.25 213.77 789.52 215.41 794.85 216.72 C 911.88 245.93 1028.88 275.21 1145.90 304.41 C 1158.67 307.85 1171.69 310.44 1184.33 314.34 L 1183.12 314.31 C 1175.48 313.76 1168.21 311.07 1160.78 309.43 C 1094.37 292.94 1028.01 276.26 961.62 259.70 C 922.23 249.65 882.68 240.27 843.35 230.00 C 826.37 226.07 809.50 221.73 792.63 217.37 C 787.98 216.08 782.96 215.71 778.79 213.09 Z" />
<path fill="#f4080f" d=" M 351.10 236.30 C 354.97 234.65 358.36 231.83 362.59 231.15 C 362.49 233.13 363.26 235.60 361.72 237.19 C 361.48 237.39 361.01 237.79 360.77 237.99 C 356.14 239.00 352.08 241.59 348.95 245.12 C 327.43 262.87 305.52 280.17 283.94 297.88 C 266.37 312.29 248.46 326.31 231.60 341.56 C 225.61 346.92 218.40 351.16 213.95 358.03 C 206.04 370.04 197.25 381.66 191.87 395.09 C 190.39 406.00 193.65 417.31 199.38 426.58 C 204.40 431.09 211.65 432.62 218.22 431.49 C 223.72 430.54 229.42 429.62 234.28 426.68 C 235.80 426.96 237.32 427.27 238.85 427.51 C 235.54 429.75 232.09 431.94 228.07 432.61 C 220.12 434.90 211.26 437.30 203.26 433.95 C 198.37 432.27 192.85 430.85 189.56 426.53 C 183.67 417.32 179.74 407.01 176.79 396.53 C 175.88 388.47 172.53 380.11 175.74 372.13 C 177.96 360.19 185.59 350.33 192.98 341.07 C 205.39 328.48 219.98 318.28 234.81 308.74 C 242.00 303.97 249.55 299.76 256.53 294.68 C 264.67 289.88 272.73 284.92 280.52 279.57 C 298.20 269.06 315.15 257.38 332.57 246.46 C 338.78 243.13 344.96 239.74 351.10 236.30 Z" />
<path fill="#ffffff" d=" M 283.94 297.88 C 305.52 280.17 327.43 262.87 348.95 245.12 C 324.95 275.07 300.91 305.00 276.94 334.97 C 271.71 342.91 267.64 351.55 262.79 359.72 C 254.09 375.68 248.06 392.89 240.77 409.51 C 238.53 414.60 236.18 419.76 235.92 425.40 C 235.37 425.82 234.83 426.25 234.28 426.68 C 229.42 429.62 223.72 430.54 218.22 431.49 C 211.65 432.62 204.40 431.09 199.38 426.58 C 193.65 417.31 190.39 406.00 191.87 395.09 C 197.25 381.66 206.04 370.04 213.95 358.03 C 218.40 351.16 225.61 346.92 231.60 341.56 C 248.46 326.31 266.37 312.29 283.94 297.88 Z" />
<path fill="#f4080f" d=" M 457.58 251.82 C 459.83 248.58 463.76 245.97 467.87 246.84 C 470.67 247.39 469.42 251.07 469.46 253.09 C 467.95 258.41 463.03 261.56 459.39 265.35 C 455.01 270.16 448.14 271.32 441.95 271.53 C 440.06 271.78 438.32 270.96 436.60 270.38 C 436.24 269.14 435.88 267.90 435.53 266.67 C 438.25 262.81 443.38 262.75 446.89 259.94 C 450.37 257.13 454.99 255.63 457.58 251.82 Z" />
<path fill="#ac085a" d=" M 1187.61 314.93 C 1192.55 314.95 1197.21 316.84 1201.99 317.86 C 1222.85 323.23 1243.87 328.03 1264.63 333.73 C 1264.12 333.78 1263.11 333.89 1262.60 333.94 C 1243.87 329.60 1225.28 324.65 1206.60 320.10 C 1200.28 318.31 1193.69 317.47 1187.61 314.93 Z" />
<path fill="#ffffff" d=" M 450.61 334.51 C 454.24 330.71 456.91 325.70 461.91 323.48 C 462.63 323.83 464.06 324.52 464.77 324.87 C 463.43 332.96 461.82 341.81 465.61 349.51 C 467.94 353.84 469.71 358.44 471.42 363.05 C 470.98 364.05 470.55 365.05 470.13 366.06 C 469.16 366.45 468.20 366.85 467.24 367.25 C 461.34 365.45 455.16 364.92 449.03 364.77 C 444.31 365.42 439.61 367.07 434.80 366.24 C 432.58 365.79 431.65 362.80 433.15 361.13 C 438.47 351.96 443.39 342.39 450.61 334.51 Z" />
<path fill="#3920dc" d=" M 1269.50 352.69 C 1268.33 351.58 1268.31 350.25 1269.63 349.52 C 1270.27 350.01 1271.56 351.00 1272.20 351.49 C 1276.06 351.39 1279.77 349.84 1283.68 350.19 L 1283.74 350.19 C 1261.48 355.65 1239.29 361.35 1217.06 366.92 C 1214.31 367.63 1211.57 368.35 1208.77 368.75 C 1215.43 365.68 1222.82 364.87 1229.81 362.78 C 1243.15 359.84 1256.06 355.22 1269.50 352.69 Z" />
<path fill="#7a7af3" d=" M 573.12 425.39 C 574.98 424.37 577.24 424.87 579.29 424.73 C 578.96 426.96 578.60 429.19 578.24 431.43 C 576.30 431.52 574.26 431.87 572.49 430.86 C 574.20 430.85 575.94 430.84 577.68 430.82 C 577.89 428.81 578.10 426.79 578.32 424.78 C 576.64 425.20 574.93 425.51 573.34 426.18 C 572.42 427.36 572.27 428.91 571.82 430.29 C 571.83 428.61 571.35 426.41 573.12 425.39 Z" />
<path fill="#ffffff" d=" M 630.68 425.68 C 632.90 424.78 635.24 424.36 637.65 424.35 C 637.32 426.47 636.94 428.59 636.50 430.70 C 634.55 430.66 632.60 430.58 630.67 430.41 C 630.65 428.83 630.66 427.25 630.68 425.68 Z" />
<path fill="#ac085a" d=" M 355.37 429.75 C 365.15 427.20 375.23 426.27 385.32 426.65 C 384.50 427.33 383.57 427.67 382.54 427.67 C 373.37 426.88 364.46 429.50 355.37 429.75 Z" />
<path fill="#ffffff" d=" M 573.34 426.18 C 574.93 425.51 576.64 425.20 578.32 424.78 C 578.10 426.79 577.89 428.81 577.68 430.82 C 575.94 430.84 574.20 430.85 572.49 430.86 L 571.67 430.86 L 571.82 430.29 C 572.27 428.91 572.42 427.36 573.34 426.18 Z" />
<path fill="#0404fb" d=" M 355.37 429.75 C 364.46 429.50 373.37 426.88 382.54 427.67 C 378.19 428.81 373.96 430.33 369.64 431.54 C 365.10 432.73 361.42 435.75 357.80 438.58 C 368.08 440.25 378.61 439.16 388.98 440.10 C 419.63 440.82 450.26 442.12 480.92 442.60 C 505.95 443.34 530.98 444.26 556.02 444.72 C 578.98 446.28 602.01 446.52 624.99 447.78 C 632.12 448.52 639.30 447.91 646.45 448.30 C 646.44 449.39 646.43 451.58 646.42 452.68 C 627.95 452.75 609.56 450.66 591.10 450.42 C 554.08 448.84 517.03 448.21 480.01 446.68 C 446.98 445.63 413.96 444.51 380.94 443.30 C 355.32 442.25 329.67 441.95 304.03 441.37 C 282.05 440.32 260.03 440.99 238.04 440.87 C 228.42 442.25 218.67 441.18 209.05 442.49 C 193.94 443.70 179.09 446.71 164.21 449.43 C 164.19 448.29 164.21 447.16 164.27 446.04 C 172.11 443.15 180.56 442.51 188.69 440.70 C 195.75 439.13 203.10 439.48 210.11 437.82 C 228.41 437.14 246.74 436.30 265.05 437.27 C 293.75 437.05 322.44 437.83 351.13 438.23 C 352.31 436.10 353.40 433.92 354.43 431.72 C 354.74 431.06 355.05 430.40 355.37 429.75 Z" />
<path fill="#0404fb" d=" M 223.10 447.39 C 230.06 447.29 237.05 447.70 243.97 446.71 C 271.63 446.62 299.30 446.72 326.96 446.75 C 339.58 448.22 352.35 446.39 364.95 448.09 C 372.98 448.37 381.03 448.12 389.05 448.62 C 399.07 448.72 409.12 448.55 419.07 449.91 C 423.99 450.75 428.93 449.61 433.87 449.84 C 482.24 451.87 530.63 453.05 579.00 454.91 C 591.53 455.61 604.16 455.74 616.56 457.84 C 616.63 459.04 616.70 460.25 616.77 461.47 C 611.38 463.32 605.62 463.52 599.98 463.18 C 591.65 462.30 583.31 461.59 574.98 460.71 C 559.68 459.75 544.35 459.57 529.03 459.17 C 520.70 458.39 512.33 458.61 503.98 458.28 C 480.31 456.96 456.61 456.55 432.94 455.35 C 399.97 454.32 366.96 454.59 333.99 453.69 C 312.65 453.66 291.28 453.46 269.95 454.21 C 255.31 454.11 240.69 454.39 226.06 454.67 C 214.16 454.52 202.57 457.59 190.89 459.41 C 187.48 459.77 184.98 462.39 181.88 463.58 C 177.59 463.68 173.27 463.31 169.03 462.68 C 166.42 462.49 165.34 459.74 164.10 457.87 C 174.77 454.56 186.02 453.34 196.88 450.68 C 205.62 449.60 214.34 448.29 223.10 447.39 Z" />
<path fill="#0404fb" d=" M 232.08 457.08 C 241.04 456.23 250.05 456.49 259.03 456.21 C 264.37 455.80 269.74 455.66 275.08 456.09 C 297.71 456.92 320.38 455.79 342.99 457.18 C 383.68 457.90 424.35 459.31 465.04 459.97 C 507.58 461.41 550.13 462.46 592.67 463.65 C 592.51 464.24 592.18 465.42 592.02 466.00 C 586.39 466.62 580.70 466.28 575.05 466.68 C 564.38 467.45 553.68 467.95 542.98 467.85 C 526.00 468.85 508.98 468.16 491.99 468.78 C 423.33 468.67 354.67 468.64 286.01 468.57 C 271.67 467.63 257.28 468.77 242.94 467.69 C 233.64 467.20 224.27 467.96 215.04 466.54 C 205.41 466.70 195.81 465.99 186.20 465.69 C 186.20 465.22 186.19 464.27 186.19 463.79 C 189.15 463.25 192.05 462.47 194.93 461.61 C 200.49 459.99 206.36 459.95 211.92 458.31 C 218.45 456.13 225.37 457.75 232.08 457.08 Z" />
</svg>
